<?xml version="1.0" encoding="UTF-8"?>
<svg version="1.1" xmlns="http://www.w3.org/2000/svg" width="55" height="55">
<path d="M0 0 C6.36746683 4.06889696 12.48515683 9.9559444 14.375 17.4375 C15.2356317 25.69469278 15.94648947 34.36147981 11.06640625 41.5078125 C5.42588685 47.94295473 0.23882908 53.02129174 -8.55078125 53.7734375 C-18.89275796 53.9880646 -25.53343713 53.3564602 -33.375 46.1875 C-40.30985805 38.60200309 -41.51605241 31.67252526 -41.0625 21.5078125 C-40.33410519 12.64162895 -35.38419595 7.71179929 -28.90625 2.06640625 C-21.6035343 -3.14803287 -8.27714603 -3.80389551 0 0 Z " fill="#F4F4F4" transform="translate(40.625,1.5625)"/>
<path d="M0 0 C2.20902541 1.61323018 4.14348593 3.25755895 5.8828125 5.375 C5.8828125 5.705 5.8828125 6.035 5.8828125 6.375 C1.20655745 6.78163087 -1.70125769 6.26353215 -5.9921875 4.3125 C-11.05819382 2.1632852 -14.83208186 1.7466161 -20.1171875 3.375 C-25.08629041 5.51974602 -29.07294585 8.35661032 -31.49609375 13.2890625 C-33.6163314 20.40986065 -32.47097781 26.9357226 -29.1171875 33.375 C-28.7871875 34.365 -28.4571875 35.355 -28.1171875 36.375 C-26.28434307 37.50016085 -26.28434307 37.50016085 -24.1171875 38.375 C-23.53066406 38.71660156 -22.94414062 39.05820312 -22.33984375 39.41015625 C-17.28950026 41.60248462 -10.93304337 41.1334644 -5.6953125 39.72265625 C-0.46240542 37.43080033 1.51601299 34.48728694 3.8828125 29.375 C4.3778125 28.385 4.3778125 28.385 4.8828125 27.375 C5.11139364 25.3375237 5.29305528 23.29459697 5.4453125 21.25 C5.52910156 20.15429688 5.61289062 19.05859375 5.69921875 17.9296875 C5.79009766 16.66511719 5.79009766 16.66511719 5.8828125 15.375 C3.5728125 15.375 1.2628125 15.375 -1.1171875 15.375 C-1.1171875 21.645 -1.1171875 27.915 -1.1171875 34.375 C-3.0971875 34.375 -5.0771875 34.375 -7.1171875 34.375 C-7.1171875 28.105 -7.1171875 21.835 -7.1171875 15.375 C-11.7371875 15.375 -16.3571875 15.375 -21.1171875 15.375 C-21.1171875 16.365 -21.1171875 17.355 -21.1171875 18.375 C-23.0971875 18.375 -25.0771875 18.375 -27.1171875 18.375 C-27.1171875 15.405 -27.1171875 12.435 -27.1171875 9.375 C-15.2371875 9.375 -3.3571875 9.375 8.8828125 9.375 C12.09316374 16.86581957 13.50866662 22.20388066 11.0390625 30.05859375 C7.64731161 37.5869057 2.61344988 42.19292908 -4.4296875 46.3125 C-11.4232917 48.32760629 -17.66077777 48.39645705 -24.3671875 45.375 C-30.80849504 41.7293633 -35.42695469 36.9082912 -38.0546875 29.9375 C-40.21751774 21.99351975 -39.74496683 16.00961157 -35.73046875 8.73828125 C-27.49911599 -3.31975367 -12.75518832 -8.04628367 0 0 Z " fill="#0E0E0E" transform="translate(41.1171875,5.625)"/>
<path d="M0 0 C6.36746683 4.06889696 12.48515683 9.9559444 14.375 17.4375 C15.2356317 25.69469278 15.94648947 34.36147981 11.06640625 41.5078125 C5.42588685 47.94295473 0.23882908 53.02129174 -8.55078125 53.7734375 C-18.89275796 53.9880646 -25.53343713 53.3564602 -33.375 46.1875 C-40.30985805 38.60200309 -41.51605241 31.67252526 -41.0625 21.5078125 C-40.33410519 12.64162895 -35.38419595 7.71179929 -28.90625 2.06640625 C-21.6035343 -3.14803287 -8.27714603 -3.80389551 0 0 Z M-33.15234375 9.45703125 C-37.74103915 15.62803541 -39.6854953 21.78867764 -38.625 29.4375 C-37.0802006 37.50631832 -33.04683738 43.3339276 -26.33203125 48.046875 C-20.21171847 51.51083581 -14.57967547 52.64960058 -7.625 51.4375 C1.26539477 48.60401161 6.6894511 43.02892231 11.3125 35.125 C13.64805282 27.01925785 12.76227735 21.06644244 9.375 13.4375 C4.30301112 13.36336479 -0.76866268 13.30890549 -5.84106445 13.27270508 C-7.56670627 13.25761484 -9.29230972 13.23714025 -11.01782227 13.21118164 C-13.49765488 13.17480791 -15.97698064 13.15777641 -18.45703125 13.14453125 C-19.22900345 13.12904739 -20.00097565 13.11356354 -20.79634094 13.09761047 C-25.00712529 13.05157 -25.00712529 13.05157 -28.63549805 14.95581055 C-29.12530151 15.68924683 -29.12530151 15.68924683 -29.625 16.4375 C-27.3991547 11.72394525 -24.39649169 9.32756661 -19.625 7.4375 C-13.21300243 5.5817085 -8.95753074 6.80290399 -3 9.51171875 C0.32040398 10.80602096 2.85650134 10.74345641 6.375 10.4375 C5.11164091 6.64742274 3.84240258 6.25676288 0.4375 4.3125 C-0.45839844 3.79429688 -1.35429688 3.27609375 -2.27734375 2.7421875 C-12.68388604 -3.04114881 -25.45009757 0.91718856 -33.15234375 9.45703125 Z " fill="#F5F5F5" transform="translate(40.625,1.5625)"/>
<path d="M0 0 C2.31 0 4.62 0 7 0 C7.47045386 7.84089769 7.29795543 13.30024595 3 20 C-0.06890187 21.53445094 -2.70094266 20.54984289 -6 20 C-6 19.67 -6 19.34 -6 19 C-4.02 19 -2.04 19 0 19 C0 12.73 0 6.46 0 0 Z " fill="#EBEBEB" transform="translate(40,21)"/>
<path d="M0 0 C4.95 0 9.9 0 15 0 C15 1.98 15 3.96 15 6 C11.7 6 8.4 6 5 6 C5 8.31 5 10.62 5 13 C3.35 13 1.7 13 0 13 C0 8.71 0 4.42 0 0 Z " fill="#101010" transform="translate(14,27)"/>
</svg>
